<svg width="100" height="76" viewBox="0 0 100 76" fill="none" xmlns="http://www.w3.org/2000/svg">
<g id="Cloud">
<path id="cloud-puff-1" d="M99.5 56C99.5 66.6712 88.6409 75.5 75 75.5C61.3591 75.5 50.5 66.6712 50.5 56C50.5 45.3288 61.3591 36.5 75 36.5C88.6409 36.5 99.5 45.3288 99.5 56Z" fill="#F6F6F6" stroke="#F6F6F6"/>
<path id="cloud-puff-4" d="M85.5 29.5C85.5 36.1274 80.1274 41.5 73.5 41.5C66.8726 41.5 61.5 36.1274 61.5 29.5C61.5 22.8726 66.8726 17.5 73.5 17.5C80.1274 17.5 85.5 22.8726 85.5 29.5Z" fill="#F6F6F6" stroke="#F6F6F6"/>
<path id="cloud-puff-2" d="M49.5 53.5C49.5 65.602 38.5818 75.5 25 75.5C11.4182 75.5 0.5 65.602 0.5 53.5C0.5 41.398 11.4182 31.5 25 31.5C38.5818 31.5 49.5 41.398 49.5 53.5Z" fill="#F6F6F6" stroke="#F6F6F6"/>
<circle id="cloud-puff-3" cx="41" cy="25" r="24.5" fill="#F6F6F6" stroke="#F6F6F6"/>
<rect id="base" x="25" y="36" width="50" height="40" fill="#F6F6F6"/>
</g>
</svg>
