<svg width="104" height="144" viewBox="0 0 104 144" fill="none" xmlns="http://www.w3.org/2000/svg">
<g id="Rain">
<g id="Raindrops">
<ellipse id="raindrop-1" cx="25.954" cy="100.351" rx="5.5" ry="10" transform="rotate(22.8691 25.954 100.351)" fill="#51AFE3"/>
<ellipse id="raindrop-4" cx="25.954" cy="132.351" rx="5.5" ry="10" transform="rotate(22.8691 25.954 132.351)" fill="#51AFE3"/>
<ellipse id="raindrop-2" cx="48.954" cy="100.351" rx="5.5" ry="10" transform="rotate(22.8691 48.954 100.351)" fill="#51AFE3"/>
<ellipse id="raindrop-5" cx="48.954" cy="132.351" rx="5.5" ry="10" transform="rotate(22.8691 48.954 132.351)" fill="#51AFE3"/>
<ellipse id="raindrop-3" cx="72.9539" cy="100.351" rx="5.5" ry="10" transform="rotate(22.8691 72.9539 100.351)" fill="#51AFE3"/>
<ellipse id="raindrop-6" cx="72.9539" cy="132.351" rx="5.5" ry="10" transform="rotate(22.8691 72.9539 132.351)" fill="#51AFE3"/>
</g>
<g id="Partly-Cloudy">
<g id="Sun">
<path id="center" d="M102.886 30.1932C102.886 46.5924 89.5924 59.8865 73.1932 59.8865C56.7941 59.8865 43.5 46.5924 43.5 30.1932C43.5 13.7941 56.7941 0.5 73.1932 0.5C89.5924 0.5 102.886 13.7941 102.886 30.1932Z" fill="#EBD45B" stroke="#EBD45B"/>
</g>
<g id="Cloud">
<path id="cloud-puff-1" d="M99.5 63C99.5 73.6712 88.6409 82.5 75 82.5C61.3591 82.5 50.5 73.6712 50.5 63C50.5 52.3288 61.3591 43.5 75 43.5C88.6409 43.5 99.5 52.3288 99.5 63Z" fill="#F6F6F6" stroke="#F6F6F6"/>
<path id="cloud-puff-4" d="M85.5 36.5C85.5 43.1274 80.1274 48.5 73.5 48.5C66.8726 48.5 61.5 43.1274 61.5 36.5C61.5 29.8726 66.8726 24.5 73.5 24.5C80.1274 24.5 85.5 29.8726 85.5 36.5Z" fill="#F6F6F6" stroke="#F6F6F6"/>
<path id="cloud-puff-2" d="M49.5 60.5C49.5 72.602 38.5818 82.5 25 82.5C11.4182 82.5 0.5 72.602 0.5 60.5C0.5 48.398 11.4182 38.5 25 38.5C38.5818 38.5 49.5 48.398 49.5 60.5Z" fill="#F6F6F6" stroke="#F6F6F6"/>
<circle id="cloud-puff-3" cx="41" cy="32" r="24.5" fill="#F6F6F6" stroke="#F6F6F6"/>
<rect id="base" x="25" y="43" width="50" height="40" fill="#F6F6F6"/>
</g>
</g>
</g>
</svg>
